<mxfile host="Electron" agent="Mozilla/5.0 (Windows NT 10.0; Win64; x64) AppleWebKit/537.36 (KHTML, like Gecko) draw.io/24.7.17 Chrome/128.0.6613.36 Electron/32.0.1 Safari/537.36" version="24.7.17">
  <diagram name="Página-1" id="N5SFHMYoh_kZs-lKCsNY">
    <mxGraphModel dx="1050" dy="629" grid="1" gridSize="10" guides="1" tooltips="1" connect="1" arrows="1" fold="1" page="1" pageScale="1" pageWidth="827" pageHeight="1169" math="0" shadow="0">
      <root>
        <mxCell id="0" />
        <mxCell id="1" parent="0" />
        <mxCell id="19qbWImqszUy8g7NEPFR-1" value="AWS Cloud" style="points=[[0,0],[0.25,0],[0.5,0],[0.75,0],[1,0],[1,0.25],[1,0.5],[1,0.75],[1,1],[0.75,1],[0.5,1],[0.25,1],[0,1],[0,0.75],[0,0.5],[0,0.25]];outlineConnect=0;gradientColor=none;html=1;whiteSpace=wrap;fontSize=12;fontStyle=0;container=1;pointerEvents=0;collapsible=0;recursiveResize=0;shape=mxgraph.aws4.group;grIcon=mxgraph.aws4.group_aws_cloud_alt;strokeColor=#232F3E;fillColor=none;verticalAlign=top;align=left;spacingLeft=30;fontColor=#232F3E;dashed=0;" parent="1" vertex="1">
          <mxGeometry x="50" y="120" width="1570" height="410" as="geometry" />
        </mxCell>
        <mxCell id="19qbWImqszUy8g7NEPFR-3" value="Region" style="points=[[0,0],[0.25,0],[0.5,0],[0.75,0],[1,0],[1,0.25],[1,0.5],[1,0.75],[1,1],[0.75,1],[0.5,1],[0.25,1],[0,1],[0,0.75],[0,0.5],[0,0.25]];outlineConnect=0;gradientColor=none;html=1;whiteSpace=wrap;fontSize=12;fontStyle=0;container=1;pointerEvents=0;collapsible=0;recursiveResize=0;shape=mxgraph.aws4.group;grIcon=mxgraph.aws4.group_region;strokeColor=#00A4A6;fillColor=none;verticalAlign=top;align=left;spacingLeft=30;fontColor=#147EBA;dashed=1;" parent="1" vertex="1">
          <mxGeometry x="60" y="150" width="1530" height="370" as="geometry" />
        </mxCell>
        <mxCell id="19qbWImqszUy8g7NEPFR-4" value="" style="rounded=1;whiteSpace=wrap;html=1;fillColor=none;strokeColor=#7F00FF;" parent="19qbWImqszUy8g7NEPFR-3" vertex="1">
          <mxGeometry x="54" y="84" width="166" height="196" as="geometry" />
        </mxCell>
        <mxCell id="19qbWImqszUy8g7NEPFR-5" value="&lt;b style=&quot;font-size: 17px;&quot;&gt;&lt;font color=&quot;#7f00ff&quot;&gt;Route 53&lt;/font&gt;&lt;/b&gt;" style="text;html=1;align=center;verticalAlign=middle;whiteSpace=wrap;rounded=0;strokeWidth=4;fontSize=17;" parent="19qbWImqszUy8g7NEPFR-3" vertex="1">
          <mxGeometry x="97" y="93" width="83" height="30" as="geometry" />
        </mxCell>
        <mxCell id="19qbWImqszUy8g7NEPFR-8" value="&lt;font color=&quot;#7f00ff&quot;&gt;Serviço Web de DNS altamente disponível e escalável&lt;/font&gt;" style="text;html=1;align=center;verticalAlign=middle;whiteSpace=wrap;rounded=0;" parent="19qbWImqszUy8g7NEPFR-3" vertex="1">
          <mxGeometry x="80.5" y="206" width="113" height="30" as="geometry" />
        </mxCell>
        <mxCell id="19qbWImqszUy8g7NEPFR-9" value="" style="sketch=0;points=[[0,0,0],[0.25,0,0],[0.5,0,0],[0.75,0,0],[1,0,0],[0,1,0],[0.25,1,0],[0.5,1,0],[0.75,1,0],[1,1,0],[0,0.25,0],[0,0.5,0],[0,0.75,0],[1,0.25,0],[1,0.5,0],[1,0.75,0]];outlineConnect=0;fontColor=#232F3E;fillColor=#8C4FFF;strokeColor=#ffffff;dashed=0;verticalLabelPosition=bottom;verticalAlign=top;align=center;html=1;fontSize=12;fontStyle=0;aspect=fixed;shape=mxgraph.aws4.resourceIcon;resIcon=mxgraph.aws4.route_53;" parent="19qbWImqszUy8g7NEPFR-3" vertex="1">
          <mxGeometry x="113" y="137" width="48" height="48" as="geometry" />
        </mxCell>
        <mxCell id="19qbWImqszUy8g7NEPFR-10" value="" style="rounded=1;whiteSpace=wrap;html=1;fillColor=none;strokeColor=#7F00FF;" parent="19qbWImqszUy8g7NEPFR-3" vertex="1">
          <mxGeometry x="381" y="94" width="250" height="166" as="geometry" />
        </mxCell>
        <mxCell id="19qbWImqszUy8g7NEPFR-11" value="&lt;b style=&quot;font-size: 17px;&quot;&gt;&lt;font color=&quot;#7f00ff&quot;&gt;Elastic Load Balancer&lt;/font&gt;&lt;/b&gt;" style="text;html=1;align=center;verticalAlign=middle;whiteSpace=wrap;rounded=0;strokeWidth=4;fontSize=17;" parent="19qbWImqszUy8g7NEPFR-3" vertex="1">
          <mxGeometry x="412" y="103" width="194" height="30" as="geometry" />
        </mxCell>
        <mxCell id="19qbWImqszUy8g7NEPFR-12" value="&lt;font color=&quot;#7f00ff&quot;&gt;Distribui automaticamente o tráfego de entrada em vários destinos&lt;/font&gt;" style="text;html=1;align=center;verticalAlign=middle;whiteSpace=wrap;rounded=0;" parent="19qbWImqszUy8g7NEPFR-3" vertex="1">
          <mxGeometry x="406.5" y="206" width="205.5" height="30" as="geometry" />
        </mxCell>
        <mxCell id="19qbWImqszUy8g7NEPFR-15" value="" style="sketch=0;points=[[0,0,0],[0.25,0,0],[0.5,0,0],[0.75,0,0],[1,0,0],[0,1,0],[0.25,1,0],[0.5,1,0],[0.75,1,0],[1,1,0],[0,0.25,0],[0,0.5,0],[0,0.75,0],[1,0.25,0],[1,0.5,0],[1,0.75,0]];outlineConnect=0;fontColor=#232F3E;fillColor=#8C4FFF;strokeColor=#ffffff;dashed=0;verticalLabelPosition=bottom;verticalAlign=top;align=center;html=1;fontSize=12;fontStyle=0;aspect=fixed;shape=mxgraph.aws4.resourceIcon;resIcon=mxgraph.aws4.elastic_load_balancing;" parent="19qbWImqszUy8g7NEPFR-3" vertex="1">
          <mxGeometry x="482" y="153" width="44" height="44" as="geometry" />
        </mxCell>
        <mxCell id="19qbWImqszUy8g7NEPFR-16" value="Auto Scaling group" style="points=[[0,0],[0.25,0],[0.5,0],[0.75,0],[1,0],[1,0.25],[1,0.5],[1,0.75],[1,1],[0.75,1],[0.5,1],[0.25,1],[0,1],[0,0.75],[0,0.5],[0,0.25]];outlineConnect=0;gradientColor=none;html=1;whiteSpace=wrap;fontSize=12;fontStyle=0;container=1;pointerEvents=0;collapsible=0;recursiveResize=0;shape=mxgraph.aws4.groupCenter;grIcon=mxgraph.aws4.group_auto_scaling_group;grStroke=1;strokeColor=#D86613;fillColor=none;verticalAlign=top;align=center;fontColor=#D86613;dashed=1;spacingTop=25;" parent="19qbWImqszUy8g7NEPFR-3" vertex="1">
          <mxGeometry x="720" y="10" width="290" height="350" as="geometry" />
        </mxCell>
        <mxCell id="19qbWImqszUy8g7NEPFR-17" value="" style="rounded=1;whiteSpace=wrap;html=1;fillColor=none;strokeColor=#004C99;" parent="19qbWImqszUy8g7NEPFR-16" vertex="1">
          <mxGeometry x="50" y="74" width="190" height="210" as="geometry" />
        </mxCell>
        <mxCell id="19qbWImqszUy8g7NEPFR-18" value="&lt;b&gt;&lt;font color=&quot;#004c99&quot; style=&quot;font-size: 15px;&quot;&gt;Web Application&lt;/font&gt;&lt;/b&gt;" style="text;html=1;align=center;verticalAlign=middle;whiteSpace=wrap;rounded=0;strokeColor=none;" parent="19qbWImqszUy8g7NEPFR-16" vertex="1">
          <mxGeometry x="97.5" y="83" width="95" height="43" as="geometry" />
        </mxCell>
        <mxCell id="19qbWImqszUy8g7NEPFR-22" value="&lt;font color=&quot;#004c99&quot;&gt;Aplicação que gerencia os agendamentos, utilizada pela beneficiária e clientes&lt;/font&gt;" style="text;html=1;align=center;verticalAlign=middle;whiteSpace=wrap;rounded=0;strokeColor=none;" parent="19qbWImqszUy8g7NEPFR-16" vertex="1">
          <mxGeometry x="115" y="190" width="60" height="30" as="geometry" />
        </mxCell>
        <mxCell id="-V8jRwL0E2ge0PpJ-j55-7" value="EC2 instance contents" style="points=[[0,0],[0.25,0],[0.5,0],[0.75,0],[1,0],[1,0.25],[1,0.5],[1,0.75],[1,1],[0.75,1],[0.5,1],[0.25,1],[0,1],[0,0.75],[0,0.5],[0,0.25]];outlineConnect=0;gradientColor=none;html=1;whiteSpace=wrap;fontSize=12;fontStyle=0;container=1;pointerEvents=0;collapsible=0;recursiveResize=0;shape=mxgraph.aws4.group;grIcon=mxgraph.aws4.group_ec2_instance_contents;strokeColor=#D86613;fillColor=none;verticalAlign=top;align=left;spacingLeft=30;fontColor=#D86613;dashed=0;" vertex="1" parent="19qbWImqszUy8g7NEPFR-16">
          <mxGeometry x="10" y="49" width="270" height="290" as="geometry" />
        </mxCell>
        <mxCell id="19qbWImqszUy8g7NEPFR-19" value="&lt;font color=&quot;#7f00ff&quot; style=&quot;font-size: 10px;&quot;&gt;[Node de Infraestrutura]&lt;/font&gt;" style="text;html=1;align=center;verticalAlign=middle;whiteSpace=wrap;rounded=0;" parent="19qbWImqszUy8g7NEPFR-3" vertex="1">
          <mxGeometry x="48.5" y="110" width="181.5" height="30" as="geometry" />
        </mxCell>
        <mxCell id="19qbWImqszUy8g7NEPFR-20" value="&lt;font color=&quot;#7f00ff&quot; style=&quot;font-size: 10px;&quot;&gt;[Node de Infraestrutura]&lt;/font&gt;" style="text;html=1;align=center;verticalAlign=middle;whiteSpace=wrap;rounded=0;" parent="19qbWImqszUy8g7NEPFR-3" vertex="1">
          <mxGeometry x="411.75" y="123" width="184.5" height="30" as="geometry" />
        </mxCell>
        <mxCell id="19qbWImqszUy8g7NEPFR-21" value="&lt;font color=&quot;#004c99&quot; style=&quot;font-size: 11px;&quot;&gt;[Container: HTML, CSS, JS e Kotlin]&lt;/font&gt;" style="text;html=1;align=center;verticalAlign=middle;whiteSpace=wrap;rounded=0;strokeColor=none;" parent="19qbWImqszUy8g7NEPFR-3" vertex="1">
          <mxGeometry x="771.75" y="143" width="184.5" height="30" as="geometry" />
        </mxCell>
        <mxCell id="19qbWImqszUy8g7NEPFR-24" value="" style="fillColor=none;strokeColor=#990099;dashed=1;verticalAlign=top;fontStyle=0;fontColor=#147EBA;whiteSpace=wrap;html=1;" parent="19qbWImqszUy8g7NEPFR-3" vertex="1">
          <mxGeometry x="1150" y="25" width="300" height="300" as="geometry" />
        </mxCell>
        <mxCell id="19qbWImqszUy8g7NEPFR-25" value="" style="sketch=0;points=[[0,0,0],[0.25,0,0],[0.5,0,0],[0.75,0,0],[1,0,0],[0,1,0],[0.25,1,0],[0.5,1,0],[0.75,1,0],[1,1,0],[0,0.25,0],[0,0.5,0],[0,0.75,0],[1,0.25,0],[1,0.5,0],[1,0.75,0]];outlineConnect=0;fontColor=#232F3E;fillColor=#C925D1;strokeColor=#ffffff;dashed=0;verticalLabelPosition=bottom;verticalAlign=top;align=center;html=1;fontSize=12;fontStyle=0;aspect=fixed;shape=mxgraph.aws4.resourceIcon;resIcon=mxgraph.aws4.rds;" parent="19qbWImqszUy8g7NEPFR-3" vertex="1">
          <mxGeometry x="1157" y="282" width="38" height="38" as="geometry" />
        </mxCell>
        <mxCell id="19qbWImqszUy8g7NEPFR-26" value="&lt;font color=&quot;#990099&quot; style=&quot;font-size: 14px;&quot;&gt;Amazon RDS&lt;/font&gt;" style="text;html=1;align=center;verticalAlign=middle;whiteSpace=wrap;rounded=0;" parent="19qbWImqszUy8g7NEPFR-3" vertex="1">
          <mxGeometry x="1196" y="296" width="90" height="30" as="geometry" />
        </mxCell>
        <mxCell id="19qbWImqszUy8g7NEPFR-29" value="" style="fillColor=none;strokeColor=#147EBA;dashed=1;verticalAlign=top;fontStyle=0;fontColor=#147EBA;whiteSpace=wrap;html=1;" parent="19qbWImqszUy8g7NEPFR-3" vertex="1">
          <mxGeometry x="1160" y="40" width="280" height="230" as="geometry" />
        </mxCell>
        <mxCell id="19qbWImqszUy8g7NEPFR-30" value="" style="sketch=0;outlineConnect=0;fontColor=#232F3E;gradientColor=none;fillColor=#C925D1;strokeColor=none;dashed=0;verticalLabelPosition=bottom;verticalAlign=top;align=center;html=1;fontSize=12;fontStyle=0;aspect=fixed;pointerEvents=1;shape=mxgraph.aws4.rds_mysql_instance;" parent="19qbWImqszUy8g7NEPFR-3" vertex="1">
          <mxGeometry x="1164" y="238" width="28" height="28" as="geometry" />
        </mxCell>
        <mxCell id="19qbWImqszUy8g7NEPFR-31" value="&lt;font color=&quot;#99004d&quot;&gt;MySQL&lt;/font&gt;" style="text;html=1;align=center;verticalAlign=middle;whiteSpace=wrap;rounded=0;" parent="19qbWImqszUy8g7NEPFR-3" vertex="1">
          <mxGeometry x="1187" y="240" width="60" height="30" as="geometry" />
        </mxCell>
        <mxCell id="19qbWImqszUy8g7NEPFR-32" value="" style="shape=cylinder3;whiteSpace=wrap;html=1;boundedLbl=1;backgroundOutline=1;size=15;fillColor=none;" parent="19qbWImqszUy8g7NEPFR-3" vertex="1">
          <mxGeometry x="1200" y="70" width="200" height="160" as="geometry" />
        </mxCell>
        <mxCell id="19qbWImqszUy8g7NEPFR-33" value="&lt;b&gt;Database&lt;/b&gt;" style="text;html=1;align=center;verticalAlign=middle;whiteSpace=wrap;rounded=0;" parent="19qbWImqszUy8g7NEPFR-3" vertex="1">
          <mxGeometry x="1270" y="97" width="60" height="30" as="geometry" />
        </mxCell>
        <mxCell id="19qbWImqszUy8g7NEPFR-34" value="Armazena, envia e recebe&amp;nbsp; todos os dados relacionados a aplicação" style="text;html=1;align=center;verticalAlign=middle;whiteSpace=wrap;rounded=0;" parent="19qbWImqszUy8g7NEPFR-3" vertex="1">
          <mxGeometry x="1240" y="169" width="125" height="30" as="geometry" />
        </mxCell>
        <mxCell id="19qbWImqszUy8g7NEPFR-35" value="&lt;font style=&quot;font-size: 10px;&quot;&gt;[Container; Banco de dados Relacional]&lt;/font&gt;" style="text;html=1;align=center;verticalAlign=middle;whiteSpace=wrap;rounded=0;" parent="19qbWImqszUy8g7NEPFR-3" vertex="1">
          <mxGeometry x="1210.75" y="117" width="184.5" height="30" as="geometry" />
        </mxCell>
        <mxCell id="19qbWImqszUy8g7NEPFR-37" value="" style="html=1;labelBackgroundColor=#ffffff;startArrow=none;startFill=0;startSize=6;endArrow=classic;endFill=1;endSize=6;jettySize=auto;orthogonalLoop=1;strokeWidth=1;dashed=1;fontSize=14;rounded=0;exitX=0.998;exitY=0.47;exitDx=0;exitDy=0;exitPerimeter=0;entryX=0;entryY=0.5;entryDx=0;entryDy=0;" parent="19qbWImqszUy8g7NEPFR-3" source="19qbWImqszUy8g7NEPFR-4" target="19qbWImqszUy8g7NEPFR-10" edge="1">
          <mxGeometry width="60" height="60" relative="1" as="geometry">
            <mxPoint x="260" y="223" as="sourcePoint" />
            <mxPoint x="320" y="163" as="targetPoint" />
          </mxGeometry>
        </mxCell>
        <mxCell id="19qbWImqszUy8g7NEPFR-38" value="&lt;div style=&quot;&quot;&gt;Encaminha solicitação&lt;/div&gt;&lt;div style=&quot;&quot;&gt;[HTTPS]&lt;/div&gt;" style="edgeLabel;html=1;align=center;verticalAlign=middle;resizable=0;points=[];" parent="19qbWImqszUy8g7NEPFR-37" vertex="1" connectable="0">
          <mxGeometry x="-0.0739" y="2" relative="1" as="geometry">
            <mxPoint as="offset" />
          </mxGeometry>
        </mxCell>
        <mxCell id="19qbWImqszUy8g7NEPFR-39" value="" style="html=1;labelBackgroundColor=#ffffff;startArrow=none;startFill=0;startSize=6;endArrow=classic;endFill=1;endSize=6;jettySize=auto;orthogonalLoop=1;strokeWidth=1;dashed=1;fontSize=14;rounded=0;entryX=0.004;entryY=0.448;entryDx=0;entryDy=0;entryPerimeter=0;exitX=1;exitY=0.5;exitDx=0;exitDy=0;" parent="19qbWImqszUy8g7NEPFR-3" source="19qbWImqszUy8g7NEPFR-10" target="19qbWImqszUy8g7NEPFR-17" edge="1">
          <mxGeometry width="60" height="60" relative="1" as="geometry">
            <mxPoint x="640" y="180" as="sourcePoint" />
            <mxPoint x="730" y="155" as="targetPoint" />
          </mxGeometry>
        </mxCell>
        <mxCell id="19qbWImqszUy8g7NEPFR-40" value="Encaminha requisição&lt;div&gt;[HTTPS]&lt;/div&gt;" style="edgeLabel;html=1;align=center;verticalAlign=middle;resizable=0;points=[];" parent="19qbWImqszUy8g7NEPFR-39" vertex="1" connectable="0">
          <mxGeometry x="-0.1704" y="-1" relative="1" as="geometry">
            <mxPoint x="7" as="offset" />
          </mxGeometry>
        </mxCell>
        <mxCell id="19qbWImqszUy8g7NEPFR-41" value="" style="html=1;labelBackgroundColor=#ffffff;startArrow=none;startFill=0;startSize=6;endArrow=classic;endFill=1;endSize=6;jettySize=auto;orthogonalLoop=1;strokeWidth=1;dashed=1;fontSize=14;rounded=0;exitX=0.997;exitY=0.432;exitDx=0;exitDy=0;exitPerimeter=0;entryX=-0.003;entryY=0.644;entryDx=0;entryDy=0;entryPerimeter=0;" parent="19qbWImqszUy8g7NEPFR-3" source="19qbWImqszUy8g7NEPFR-17" target="19qbWImqszUy8g7NEPFR-32" edge="1">
          <mxGeometry width="60" height="60" relative="1" as="geometry">
            <mxPoint x="1040" y="200" as="sourcePoint" />
            <mxPoint x="1100" y="140" as="targetPoint" />
          </mxGeometry>
        </mxCell>
        <mxCell id="19qbWImqszUy8g7NEPFR-42" value="Insere e Consome" style="edgeLabel;html=1;align=center;verticalAlign=middle;resizable=0;points=[];" parent="19qbWImqszUy8g7NEPFR-41" vertex="1" connectable="0">
          <mxGeometry x="0.0909" y="-3" relative="1" as="geometry">
            <mxPoint as="offset" />
          </mxGeometry>
        </mxCell>
        <mxCell id="19qbWImqszUy8g7NEPFR-45" value="" style="rounded=1;whiteSpace=wrap;html=1;fillColor=none;strokeColor=#00CC00;" parent="1" vertex="1">
          <mxGeometry x="590" y="600" width="180" height="160" as="geometry" />
        </mxCell>
        <mxCell id="19qbWImqszUy8g7NEPFR-46" value="&lt;b&gt;&lt;font color=&quot;#00cc00&quot; style=&quot;font-size: 15px;&quot;&gt;API Pipefy&lt;/font&gt;&lt;/b&gt;" style="text;html=1;align=center;verticalAlign=middle;whiteSpace=wrap;rounded=0;strokeColor=none;" parent="1" vertex="1">
          <mxGeometry x="630" y="610" width="95" height="43" as="geometry" />
        </mxCell>
        <mxCell id="19qbWImqszUy8g7NEPFR-47" value="&lt;font color=&quot;#00cc00&quot; style=&quot;font-size: 11px;&quot;&gt;[API Externa]&lt;/font&gt;" style="text;html=1;align=center;verticalAlign=middle;whiteSpace=wrap;rounded=0;strokeColor=none;" parent="1" vertex="1">
          <mxGeometry x="585.25" y="640" width="184.5" height="30" as="geometry" />
        </mxCell>
        <mxCell id="19qbWImqszUy8g7NEPFR-48" value="&lt;font color=&quot;#00cc00&quot;&gt;API Externa que coleta dados de clientes relevantes para o negócio&lt;/font&gt;" style="text;html=1;align=center;verticalAlign=middle;whiteSpace=wrap;rounded=0;strokeColor=none;" parent="1" vertex="1">
          <mxGeometry x="629" y="700" width="100" height="30" as="geometry" />
        </mxCell>
        <mxCell id="19qbWImqszUy8g7NEPFR-49" value="" style="html=1;labelBackgroundColor=#ffffff;startArrow=none;startFill=0;startSize=6;endArrow=classic;endFill=1;endSize=6;jettySize=auto;orthogonalLoop=1;strokeWidth=1;dashed=1;fontSize=14;rounded=0;exitX=0.5;exitY=0;exitDx=0;exitDy=0;entryX=0.25;entryY=1;entryDx=0;entryDy=0;edgeStyle=orthogonalEdgeStyle;" parent="1" source="19qbWImqszUy8g7NEPFR-45" target="19qbWImqszUy8g7NEPFR-17" edge="1">
          <mxGeometry width="60" height="60" relative="1" as="geometry">
            <mxPoint x="790" y="630" as="sourcePoint" />
            <mxPoint x="850" y="570" as="targetPoint" />
            <Array as="points">
              <mxPoint x="680" y="550" />
              <mxPoint x="878" y="550" />
            </Array>
          </mxGeometry>
        </mxCell>
        <mxCell id="19qbWImqszUy8g7NEPFR-50" value="Coleta dados" style="edgeLabel;html=1;align=center;verticalAlign=middle;resizable=0;points=[];" parent="19qbWImqszUy8g7NEPFR-49" vertex="1" connectable="0">
          <mxGeometry x="-0.2871" y="2" relative="1" as="geometry">
            <mxPoint x="6" y="2" as="offset" />
          </mxGeometry>
        </mxCell>
        <mxCell id="19qbWImqszUy8g7NEPFR-51" value="" style="rounded=1;whiteSpace=wrap;html=1;fillColor=none;strokeColor=#00CC00;" parent="1" vertex="1">
          <mxGeometry x="1060" y="600" width="180" height="160" as="geometry" />
        </mxCell>
        <mxCell id="19qbWImqszUy8g7NEPFR-52" value="&lt;b&gt;&lt;font color=&quot;#00cc00&quot; style=&quot;font-size: 15px;&quot;&gt;API ViaCEP&lt;/font&gt;&lt;/b&gt;" style="text;html=1;align=center;verticalAlign=middle;whiteSpace=wrap;rounded=0;strokeColor=none;" parent="1" vertex="1">
          <mxGeometry x="1107" y="610" width="95" height="43" as="geometry" />
        </mxCell>
        <mxCell id="19qbWImqszUy8g7NEPFR-53" value="&lt;font color=&quot;#00cc00&quot; style=&quot;font-size: 11px;&quot;&gt;[API Externa]&lt;/font&gt;" style="text;html=1;align=center;verticalAlign=middle;whiteSpace=wrap;rounded=0;strokeColor=none;" parent="1" vertex="1">
          <mxGeometry x="1055.25" y="641" width="184.5" height="30" as="geometry" />
        </mxCell>
        <mxCell id="19qbWImqszUy8g7NEPFR-54" value="&lt;font color=&quot;#00cc00&quot;&gt;API Externa que informa o endereço baseado no CEP informado&lt;/font&gt;" style="text;html=1;align=center;verticalAlign=middle;whiteSpace=wrap;rounded=0;strokeColor=none;" parent="1" vertex="1">
          <mxGeometry x="1101" y="695" width="100" height="30" as="geometry" />
        </mxCell>
        <mxCell id="19qbWImqszUy8g7NEPFR-55" value="" style="html=1;labelBackgroundColor=#ffffff;startArrow=none;startFill=0;startSize=6;endArrow=classic;endFill=1;endSize=6;jettySize=auto;orthogonalLoop=1;strokeWidth=1;dashed=1;fontSize=14;rounded=0;exitX=0.5;exitY=0;exitDx=0;exitDy=0;entryX=0.75;entryY=1;entryDx=0;entryDy=0;edgeStyle=orthogonalEdgeStyle;" parent="1" source="19qbWImqszUy8g7NEPFR-51" target="19qbWImqszUy8g7NEPFR-17" edge="1">
          <mxGeometry width="60" height="60" relative="1" as="geometry">
            <mxPoint x="880" y="590" as="sourcePoint" />
            <mxPoint x="940" y="530" as="targetPoint" />
            <Array as="points">
              <mxPoint x="1150" y="550" />
              <mxPoint x="973" y="550" />
            </Array>
          </mxGeometry>
        </mxCell>
        <mxCell id="19qbWImqszUy8g7NEPFR-56" value="Retorna informação" style="edgeLabel;html=1;align=center;verticalAlign=middle;resizable=0;points=[];" parent="19qbWImqszUy8g7NEPFR-55" vertex="1" connectable="0">
          <mxGeometry x="-0.3951" y="1" relative="1" as="geometry">
            <mxPoint x="-22" as="offset" />
          </mxGeometry>
        </mxCell>
        <mxCell id="-V8jRwL0E2ge0PpJ-j55-1" value="" style="rounded=1;whiteSpace=wrap;html=1;fillColor=none;strokeColor=#00CC00;" vertex="1" parent="1">
          <mxGeometry x="833.75" y="610" width="180" height="160" as="geometry" />
        </mxCell>
        <mxCell id="-V8jRwL0E2ge0PpJ-j55-2" value="&lt;b&gt;&lt;font color=&quot;#00cc00&quot; style=&quot;font-size: 15px;&quot;&gt;API Geolocalização&lt;/font&gt;&lt;/b&gt;" style="text;html=1;align=center;verticalAlign=middle;whiteSpace=wrap;rounded=0;strokeColor=none;" vertex="1" parent="1">
          <mxGeometry x="856" y="620" width="143.75" height="43" as="geometry" />
        </mxCell>
        <mxCell id="-V8jRwL0E2ge0PpJ-j55-3" value="&lt;font color=&quot;#00cc00&quot; style=&quot;font-size: 11px;&quot;&gt;[API Externa]&lt;/font&gt;" style="text;html=1;align=center;verticalAlign=middle;whiteSpace=wrap;rounded=0;strokeColor=none;" vertex="1" parent="1">
          <mxGeometry x="829" y="651" width="184.5" height="30" as="geometry" />
        </mxCell>
        <mxCell id="-V8jRwL0E2ge0PpJ-j55-4" value="&lt;font color=&quot;#00cc00&quot;&gt;API Externa que catpura os dados de localização do usuário&lt;/font&gt;" style="text;html=1;align=center;verticalAlign=middle;whiteSpace=wrap;rounded=0;strokeColor=none;" vertex="1" parent="1">
          <mxGeometry x="874.75" y="705" width="100" height="30" as="geometry" />
        </mxCell>
        <mxCell id="-V8jRwL0E2ge0PpJ-j55-5" value="" style="html=1;labelBackgroundColor=#ffffff;startArrow=none;startFill=0;startSize=6;endArrow=classic;endFill=1;endSize=6;jettySize=auto;orthogonalLoop=1;strokeWidth=1;dashed=1;fontSize=14;rounded=0;exitX=0.5;exitY=0;exitDx=0;exitDy=0;entryX=0.5;entryY=1;entryDx=0;entryDy=0;" edge="1" parent="1" source="-V8jRwL0E2ge0PpJ-j55-1" target="19qbWImqszUy8g7NEPFR-17">
          <mxGeometry width="60" height="60" relative="1" as="geometry">
            <mxPoint x="1010" y="630" as="sourcePoint" />
            <mxPoint x="1070" y="570" as="targetPoint" />
          </mxGeometry>
        </mxCell>
        <mxCell id="-V8jRwL0E2ge0PpJ-j55-6" value="Coleta dados" style="edgeLabel;html=1;align=center;verticalAlign=middle;resizable=0;points=[];" vertex="1" connectable="0" parent="-V8jRwL0E2ge0PpJ-j55-5">
          <mxGeometry x="-0.5611" y="-1" relative="1" as="geometry">
            <mxPoint x="-1" y="-3" as="offset" />
          </mxGeometry>
        </mxCell>
      </root>
    </mxGraphModel>
  </diagram>
</mxfile>
